PathFileType	4	(X/Y/Z)	C:/Users/opensim2020/Desktop/walking_exp_matlab/subject02_walking06_static.trc																																																																																																																									
DataRate	CameraRate	NumFrames	NumMarkers	Units	OrigDataRate	OrigDataStartFrame	OrigNumFrames																																																																																																																					
100	100	6	41	mm	100	252	287																																																																																																																					
Frame#	Time	LFHD			RFHD			LBHD			RBHD			C7			T10			CLAV			STRN			RBAK			LSHO			LUPA			LELB			LFRM			LWRA			LWRB			LFIN			RSHO			RUPA			RELB			RFRM			RWRA			RWRB			RFIN			LASI			RASI			LPSI			RPSI			LTHI			LKNE			LTIB			LANK			LHEE			LTOE			RTHI			RKNE			RTIB			RANK			RHEE			RTOE			*39			*40		
		X1	Y1	Z1	X2	Y2	Z2	X3	Y3	Z3	X4	Y4	Z4	X5	Y5	Z5	X6	Y6	Z6	X7	Y7	Z7	X8	Y8	Z8	X9	Y9	Z9	X10	Y10	Z10	X11	Y11	Z11	X12	Y12	Z12	X13	Y13	Z13	X14	Y14	Z14	X15	Y15	Z15	X16	Y16	Z16	X17	Y17	Z17	X18	Y18	Z18	X19	Y19	Z19	X20	Y20	Z20	X21	Y21	Z21	X22	Y22	Z22	X23	Y23	Z23	X24	Y24	Z24	X25	Y25	Z25	X26	Y26	Z26	X27	Y27	Z27	X28	Y28	Z28	X29	Y29	Z29	X30	Y30	Z30	X31	Y31	Z31	X32	Y32	Z32	X33	Y33	Z33	X34	Y34	Z34	X35	Y35	Z35	X36	Y36	Z36	X37	Y37	Z37	X38	Y38	Z38	X39	Y39	Z39	X40	Y40	Z40	X41	Y41	Z41
																																																																																																																												
252	2.51	27.88176	1747.995	-695.94012	17.73013	1730.30212	-553.66852	-97.32176	1665.63477	-714.89532	-120.13561	1645.60229	-574.36792	-146.51823	1522.17432	-640.52545	-187.38525	1247.84851	-638.69568	2.1402	1470.31262	-649.75311	65.63039	1301.80078	-639.32135	-186.73862	1349.48706	-569.0957	-55.90158	1511.61304	-817.06519	-52.02314	1327.49915	-924.85681	-56.35464	1186.62561	-954.97723	-31.32732	1053.26587	-961.60901	27.48808	936.5202	-912.64349	-9.96503	932.37427	-955.14807	18.10006	872.51471	-952.48462	-52.00192	1506.08765	-458.42786	-55.6963	1332.41321	-347.07037	-32.59731	1186.57849	-316.12378	7.45174	1069.22644	-307.89215	51.88288	945.51056	-343.09778	20.82225	939.37384	-296.69199	61.98317	880.98224	-307.9505	43.54529	993.81915	-758.77319	33.8076	985.96832	-507.95004	-167.95976	1027.63684	-690.01172	-176.98579	1028.91553	-575.52386	-31.41593	685.81451	-838.72076	-66.82774	484.08209	-828.08575	-123.90002	299.71411	-851.95245	-116.07711	72.54678	-847.21045	-151.61905	40.98365	-801.30133	42.86286	30.98557	-860.30359	-53.96565	682.23657	-415.63614	-55.08987	471.01187	-431.63315	-108.94386	291.88583	-404.38483	-133.81174	97.13195	-415.50748	-166.50861	37.42554	-465.3718	15.31888	38.03709	-379.85632	-84.72816	1808.42273	-615.58032	3360.24854	1034.04504	2844.98169
253	2.52	28.02889	1747.88916	-695.85071	17.98309	1730.27832	-553.51831	-97.23111	1665.55627	-714.68634	-119.92877	1645.60364	-574.07117	-146.42496	1522.17188	-640.28052	-187.37427	1247.84827	-638.51251	2.19525	1470.21558	-649.53021	65.65529	1301.68311	-639.1568	-186.67627	1349.4469	-568.89801	-55.86164	1511.49475	-816.80365	-52.03666	1327.44446	-924.55005	-56.35655	1186.56665	-954.71545	-31.24818	1053.22473	-961.37146	27.71786	936.52112	-912.44257	-9.67681	932.24731	-954.66364	18.27672	872.51111	-952.2959	-51.86213	1505.97986	-458.19916	-55.6498	1332.1687	-346.91605	-32.4703	1186.41028	-316.00073	7.52966	1069.06323	-307.87778	52.01374	945.35779	-343.09958	20.93635	939.38049	-296.47714	62.0833	880.77637	-307.95181	43.56847	993.82263	-758.72693	33.86448	985.95526	-507.86572	-167.94519	1027.58948	-689.93365	-176.97891	1028.8446	-575.48779	-31.36256	685.80573	-838.67194	-66.79182	484.08322	-828.04846	-123.89197	299.72412	-851.92755	-116.07096	72.56474	-847.23334	-151.61397	41.00334	-801.28125	42.86391	30.97154	-860.28375	-54.13245	682.35541	-415.1181	-54.96064	471.03241	-431.56293	-108.8372	291.87625	-404.38898	-133.82352	97.11904	-415.51736	-166.46877	37.3648	-465.41217	15.31291	38.04245	-379.84457	-84.51659	1808.40771	-615.39282	3360.17993	1033.88953	2845.0603
254	2.53	28.11537	1747.70325	-695.45233	18.22038	1730.24414	-553.37457	-97.10836	1665.51904	-714.40845	-119.77883	1645.63281	-573.78973	-146.32274	1522.14587	-640.00269	-187.33919	1247.83142	-638.35889	2.25227	1470.11768	-649.3299	65.67986	1301.57532	-639.00049	-186.61484	1349.41101	-568.65247	-55.80645	1511.46667	-816.56409	-52.0135	1327.35791	-924.27197	-56.33649	1186.50964	-954.46307	-31.16343	1053.16785	-961.10962	27.90182	936.51453	-912.21472	-9.49885	932.26526	-954.41974	18.47238	872.51202	-952.10052	-51.79055	1505.81897	-457.9621	-55.56152	1331.99438	-346.76306	-32.391	1186.2085	-315.89792	7.64835	1068.85425	-307.80069	52.13108	945.1756	-343.04065	21.03623	938.95551	-296.65396	62.18607	880.62726	-307.96124	43.58848	993.81897	-758.66803	33.96681	985.91736	-507.7879	-167.92538	1027.5271	-689.83832	-176.96109	1028.79211	-575.39331	-31.31039	685.81	-838.60223	-66.75034	484.07401	-828.03052	-123.89393	299.73239	-851.89832	-116.08144	72.53378	-847.23737	-151.63554	40.96534	-801.32013	42.87966	30.99126	-860.32892	-54.06046	682.32001	-415.07401	-54.89117	470.99213	-431.53815	-108.75605	291.88242	-404.33563	-133.81435	97.11713	-415.48859	-166.54132	37.41299	-465.42993	15.30732	38.01616	-379.8616	-84.28522	1808.42529	-615.44788	3360.19385	1033.99182	2845.11328
255	2.54	28.32392	1747.69482	-695.4754	18.46898	1730.19287	-553.20441	-97.01032	1665.47742	-714.12683	-119.59792	1645.6073	-573.53198	-146.24542	1522.1261	-639.72479	-187.30106	1247.80457	-638.16333	2.31009	1470.05225	-649.07538	65.67452	1301.46802	-638.81628	-186.57343	1349.36914	-568.43878	-55.75288	1511.45227	-816.3385	-51.91386	1327.29333	-924.0625	-56.31538	1186.46533	-954.19482	-31.08207	1053.12915	-960.87262	28.10117	936.5191	-911.94904	-9.30844	932.21057	-954.12201	18.6619	872.69556	-952.01147	-51.70541	1505.70325	-457.64828	-55.45773	1331.80457	-346.59149	-32.27652	1186.03735	-315.75421	7.62811	1068.91101	-307.57123	52.23827	945.0174	-342.97006	21.14895	938.75006	-296.63062	62.28691	880.46051	-307.90753	43.62714	993.83221	-758.60632	34.0597	985.87579	-507.70233	-167.95319	1027.49402	-689.75201	-176.92633	1028.72278	-575.30518	-31.26936	685.88556	-838.81494	-66.73352	484.07785	-828.01044	-123.99043	299.79895	-851.94086	-116.07491	72.5523	-847.24744	-151.62585	40.9776	-801.31287	42.88296	30.96633	-860.31903	-53.94545	682.28705	-414.98987	-54.77469	470.9295	-431.50464	-108.69894	291.84265	-404.34781	-133.80525	97.12375	-415.50143	-166.49149	37.32602	-465.34982	15.30708	38.03395	-379.88071	-84.03799	1808.396	-614.8219	3357.48682	1033.94202	2845.72607
256	2.55	28.48507	1747.58191	-695.28949	18.6921	1730.10498	-553.00073	-96.90954	1665.45264	-713.82623	-119.34962	1645.62561	-573.20404	-146.16158	1522.08948	-639.39642	-187.23877	1247.78516	-637.96344	2.36362	1469.99512	-648.82941	65.67522	1301.38831	-638.63464	-186.50218	1349.31238	-568.27063	-55.7122	1511.51575	-816.09015	-51.89442	1327.28259	-923.797	-56.29393	1186.44006	-953.93988	-30.95937	1053.15295	-960.61395	28.30291	936.54242	-911.69269	-9.27121	932.33105	-954.12842	18.84451	872.62457	-951.54144	-51.48964	1505.55139	-457.45569	-55.31078	1331.6311	-346.49551	-32.21295	1185.84961	-315.61765	7.87762	1068.5354	-307.57712	52.32572	944.88293	-342.90372	21.42411	938.48547	-296.88577	62.33618	880.29089	-307.86108	43.65336	993.84564	-758.50964	34.1591	985.85046	-507.61365	-167.89838	1027.4707	-689.61646	-176.85435	1028.66919	-575.17993	-31.25354	685.86572	-838.71735	-66.70182	484.06454	-827.93494	-123.92888	299.76236	-851.80817	-116.08298	72.53674	-847.21161	-151.60341	40.99965	-801.27985	42.87408	30.95971	-860.32068	-53.82487	682.25842	-414.94736	-54.59321	470.93192	-431.39359	-108.63203	291.82431	-404.33075	-133.82808	97.10551	-415.50562	-166.49432	37.31148	-465.34567	15.31218	38.02603	-379.84692	-83.7914	1808.40259	-614.59869	3360.16138	1033.96594	2845.03638
257	2.56	28.66137	1747.48096	-695.05835	18.94993	1730.04712	-552.76672	-96.80446	1665.44373	-713.50293	-119.19861	1645.6886	-572.83929	-146.06677	1522.07397	-639.13257	-187.18221	1247.75635	-637.76373	2.41221	1469.94751	-648.59119	65.70728	1301.31104	-638.46594	-186.39507	1349.27283	-568.04291	-55.67786	1511.48682	-815.83014	-51.90021	1327.245	-923.52594	-56.26252	1186.42285	-953.6225	-30.87369	1053.08655	-960.28113	28.50797	936.6225	-911.44843	-9.07851	932.31616	-953.79132	19.16108	872.59308	-951.3045	-51.45216	1505.47217	-457.08252	-55.21381	1331.42444	-346.27023	-32.10515	1185.69543	-315.47882	7.98311	1068.35156	-307.42169	52.36195	944.68622	-342.81113	21.30163	938.41602	-296.44055	62.47786	880.11847	-307.77448	43.66516	993.85358	-758.43323	34.24963	985.78448	-507.50974	-167.90332	1027.45874	-689.48108	-176.76959	1028.6449	-575.03284	-31.25977	685.87225	-838.65552	-66.66161	484.08026	-827.90485	-123.89159	299.76132	-851.78302	-116.07726	72.54491	-847.21222	-151.61348	40.95492	-801.2901	42.88076	30.94577	-860.31158	-53.67162	682.24487	-414.84576	-54.50811	470.89532	-431.38834	-108.59129	291.80328	-404.3154	-133.83667	97.10959	-415.49695	-166.51729	37.37034	-465.42511	15.29395	38.03587	-379.87668	-83.56071	1808.38525	-614.43884	3360.32129	1033.7301	2845.25244
